<svg xmlns="http://www.w3.org/2000/svg" width="36" height="36" viewBox="0 0 36 36">
  <defs>
    <radialGradient id="bg" cx="38%" cy="32%" r="62%" gradientUnits="objectBoundingBox">
      <stop offset="0%"   stop-color="#62b83a"/>
      <stop offset="100%" stop-color="#3a7a22"/>
    </radialGradient>
    <clipPath id="circ">
      <circle cx="18" cy="18" r="16.5"/>
    </clipPath>
  </defs>
  <circle cx="18" cy="18" r="17"   fill="#3a7a22"/>
  <circle cx="18" cy="18" r="15.8" fill="url(#bg)"/>
  <path d="M 8 10 A 11 11 0 0 1 24 7"
        stroke="#ffffff" stroke-opacity="0.20" stroke-width="2.5"
        fill="none" stroke-linecap="round"/>
  <g clip-path="url(#circ)">
    <rect x="6"  y="9.8"  width="24" height="2.4" rx="1.2"
          fill="#ffffff" fill-opacity="0.28"/>
    <rect x="6"  y="17.8" width="24" height="2.4" rx="1.2"
          fill="#ffffff" fill-opacity="0.28"/>
    <rect x="6"  y="25.8" width="24" height="2.4" rx="1.2"
          fill="#ffffff" fill-opacity="0.28"/>
    <rect x="6"  y="9.8"  width="10" height="2.4" rx="1.2" fill="#ffffff"/>
    <rect x="6"  y="17.8" width="18" height="2.4" rx="1.2" fill="#ffffff"/>
    <rect x="6"  y="25.8" width="14" height="2.4" rx="1.2" fill="#ffffff"/>
    <circle cx="16" cy="11" r="3.2" fill="#ffffff"/>
    <circle cx="24" cy="19" r="3.2" fill="#ffffff"/>
    <circle cx="20" cy="27" r="3.2" fill="#ffffff"/>
    <circle cx="16" cy="11" r="1.8" fill="#4e9a2e"/>
    <circle cx="24" cy="19" r="1.8" fill="#4e9a2e"/>
    <circle cx="20" cy="27" r="1.8" fill="#4e9a2e"/>
  </g>
</svg>
